<svg width="24" height="24" viewBox="0 0 24 24" fill="none" xmlns="http://www.w3.org/2000/svg">
<path d="M10 12C10 11.4696 10.2109 10.961 10.5859 10.5859C10.961 10.2109 11.4696 10 12 10C12.5304 10 13.039 10.2109 13.4141 10.5859C13.7891 10.961 14 11.4696 14 12C14 12.5304 13.7891 13.039 13.4141 13.4141C13.039 13.7891 12.5304 14 12 14C11.4696 14 10.961 13.7891 10.5859 13.4141C10.2109 13.039 10 12.5304 10 12Z" fill="black"/>
<path d="M16 12C16 10.9391 15.5783 9.92202 14.8281 9.17188C14.078 8.42173 13.0609 8 12 8C10.9391 8 9.92202 8.42173 9.17188 9.17188C8.42173 9.92202 8 10.9391 8 12C8 13.0609 8.42173 14.078 9.17188 14.8281C9.92202 15.5783 10.9391 16 12 16C13.0609 16 14.078 15.5783 14.8281 14.8281C15.5783 14.078 16 13.0609 16 12ZM18 12C18 13.5913 17.3674 15.117 16.2422 16.2422C15.117 17.3674 13.5913 18 12 18C10.4087 18 8.88303 17.3674 7.75781 16.2422C6.63259 15.117 6 13.5913 6 12C6 10.4087 6.63259 8.88303 7.75781 7.75781C8.88303 6.63259 10.4087 6 12 6C13.5913 6 15.117 6.63259 16.2422 7.75781C17.3674 8.88303 18 10.4087 18 12Z" fill="black"/>
<path d="M20 12C20 10.9494 19.7927 9.90908 19.3906 8.93848C18.9886 7.96795 18.4 7.08559 17.6572 6.34277C16.9144 5.59995 16.0321 5.01141 15.0615 4.60938C14.0909 4.20734 13.0506 4 12 4C10.9494 4 9.90908 4.20734 8.93848 4.60938C7.96795 5.01141 7.08559 5.59995 6.34277 6.34277C5.59995 7.08559 5.01141 7.96795 4.60938 8.93848C4.20734 9.90908 4 10.9494 4 12C4 13.0506 4.20734 14.0909 4.60938 15.0615C5.01141 16.0321 5.59995 16.9144 6.34277 17.6572C7.08559 18.4 7.96795 18.9886 8.93848 19.3906C9.90908 19.7927 10.9494 20 12 20C13.0506 20 14.0909 19.7927 15.0615 19.3906C16.0321 18.9886 16.9144 18.4 17.6572 17.6572C18.4 16.9144 18.9886 16.0321 19.3906 15.0615C19.7927 14.0909 20 13.0506 20 12ZM22 12C22 13.3132 21.7418 14.6139 21.2393 15.8271C20.7367 17.0404 19.9998 18.1427 19.0713 19.0713C18.1427 19.9998 17.0404 20.7367 15.8271 21.2393C14.6139 21.7418 13.3132 22 12 22C10.6868 22 9.38611 21.7418 8.17285 21.2393C6.95964 20.7367 5.85727 19.9998 4.92871 19.0713C4.00015 18.1427 3.26329 17.0404 2.76074 15.8271C2.2582 14.6139 2 13.3132 2 12C2 10.6868 2.2582 9.38611 2.76074 8.17285C3.26329 6.95964 4.00015 5.85727 4.92871 4.92871C5.85727 4.00015 6.95964 3.26329 8.17285 2.76074C9.38611 2.2582 10.6868 2 12 2C13.3132 2 14.6139 2.2582 15.8271 2.76074C17.0404 3.26329 18.1427 4.00015 19.0713 4.92871C19.9998 5.85727 20.7367 6.95964 21.2393 8.17285C21.7418 9.38611 22 10.6868 22 12Z" fill="black"/>
</svg>
