<svg width="24" height="24" viewBox="0 0 24 24" fill="none" xmlns="http://www.w3.org/2000/svg">
<path d="M3 18V8C3 7.20435 3.3163 6.44152 3.87891 5.87891C4.44152 5.3163 5.20435 5 6 5H12C12.5523 5 13 5.44772 13 6C13 6.55228 12.5523 7 12 7H6C5.73478 7 5.4805 7.10543 5.29297 7.29297C5.10543 7.4805 5 7.73478 5 8V18C5 18.2652 5.10543 18.5195 5.29297 18.707C5.48051 18.8946 5.73478 19 6 19H16C16.2652 19 16.5195 18.8946 16.707 18.707C16.8946 18.5195 17 18.2652 17 18V12C17 11.4477 17.4477 11 18 11C18.5523 11 19 11.4477 19 12V18C19 18.7957 18.6837 19.5585 18.1211 20.1211C17.5585 20.6837 16.7957 21 16 21H6C5.20435 21 4.44152 20.6837 3.87891 20.1211C3.3163 19.5585 3 18.7956 3 18Z" fill="black"/>
<path d="M19.2929 3.29297C19.6834 2.90245 20.3164 2.90245 20.707 3.29297C21.0975 3.68349 21.0975 4.31651 20.707 4.70703L11.707 13.707C11.3164 14.0976 10.6834 14.0976 10.2929 13.707C9.90237 13.3165 9.90237 12.6835 10.2929 12.293L19.2929 3.29297Z" fill="black"/>
<path d="M19 9V5H15C14.4477 5 14 4.55228 14 4C14 3.44772 14.4477 3 15 3H20C20.5523 3 21 3.44772 21 4V9C21 9.55228 20.5523 10 20 10C19.4477 10 19 9.55228 19 9Z" fill="black"/>
</svg>
